<svg xmlns="http://www.w3.org/2000/svg" viewBox="0 0 300 300" style="enable-background:new 0 0 300 300" xml:space="preserve"><path d="M127.769 101.483c.177.637 1.14.373.965-.265l-2.755-9.999c-.178-.636-1.14-.372-.965.266l2.755 9.998zM135.522 104.691c.125.654 1.107.466.982-.187a82.998 82.998 0 0 0-3.27-12.073c-.224-.624-1.162-.29-.943.334a81.924 81.924 0 0 1 3.23 11.926zM142.935 108.473c.14.646 1.117.435.976-.212l-2.325-10.734c-.14-.647-1.117-.434-.976.212l2.325 10.734zM175.538 121.006a.501.501 0 0 0 .95-.317l-2-6c-.21-.626-1.158-.312-.95.317l2 6zM179.044 119.77c.228.621 1.167.275.938-.345l-1.75-4.75c-.227-.62-1.168-.277-.938.345l1.75 4.75zM21.989 77.36l.391.137c.443 1.082 1.026 2.205 1.34 3.249 18.58 5.717 34.706 11.128 52.834 18.166 1.18-.524 2.433-.86 3.096-1.472 1.262-.206 1.612-2.398.08-2.972-18.824-7.059-38.004-13.255-56.944-20.001-1.822-.65-2.606 2.248-.797 2.892z"/><path d="M256.745 152.787c-13.819-8.067-29.013-13.465-44.256-18.136-1.85-.568-2.641 2.327-.797 2.892 21.525 6.597 42.377 14.495 59.63 29.156.703.598 2.841 2.035 3.241 2.868 2.293 4.775-2.646 4.192-4.423 4.089-21.778-1.272-52.18-12.876-71.407-30.02 6.496-.61 10.386-7.358 6.976-11.731-1.59-2.04-5.633-4.298-8.977-4.47.577-2.472.892-5.04.924-7.682 2.759-6.02 3.9-12.85 2.93-20.073-3.146-23.452-24.745-39.607-46.1-45.968-25.634-6.904-54.576 4.379-58.347 30.76-11.333 18.44-3.34 41.083 12.514 55.524 20.502 18.674 53.295 24.313 74.048 8.595 3.773 1.883 6.786 2.567 12.304 1.713 7.236 9.76 15.662 16.91 24.894 21.676 13.655 7.05 27.097 11.558 42.118 10.075 5.99-.591 12.075-2.195 15.771-6.973 6.892-6.398-16.799-19.817-21.043-22.295zM149.437 70.639c23.32 6.973 45.236 24.835 45.106 48.588-11.406 24.208-46.583 27.707-72.222 10.305-14.138-9.595-25.629-26.368-23.311-43.932 10.138-15.61 32.704-19.77 50.427-14.96zm52.118 68.961c-2.804 1.912-6.722 1.146-9.808-.615a35.96 35.96 0 0 0 4.096-8.41c5.078-.972 11.404 5.146 5.712 9.025z"/><path d="M160.811 119.93c5.493 4.026 20.906 12.52 25.545 3.133 4.999-10.114-9.504-15.284-16.455-16.948a.774.774 0 0 0-.847.345c-2.67 4.096-5.54 8.057-8.212 12.152-.383.266-.538.946-.03 1.318zm10.378-11.965c4.245-.45 10.947 3.933 13.071 7.178 2.389 3.649 1.848 8.833-3.057 10.28-2.243.661-4.996-.07-7.154-.635-4.284-1.12-8.18-3.12-11.77-5.652 1.85-2.987 5.586-10.818 8.91-11.17zM115.593 109.686c7.318 6.823 20.712 8.526 30.674 8.292 1.824-.043 3.68.508 5.488.83 2.31.413 2.692.717 3.745-.001.612-.416 1.146-1.422.975-2.23a.718.718 0 0 0 .027-.118l6.844-12.616c.155-.287.129-.677-.117-.91-8.193-7.734-17.834-14.368-28.8-17.399-7.13-1.97-20.845-3.271-24.267 5.67-2.185 5.712 1.124 14.468 5.43 18.482zm-.789-21.544c9.53-6.21 23.378-.685 32.192 4.37 4.302 2.468 9.474 5.526 12.783 9.27 2.294 2.596.736 4.133-.82 7.001l-3.628 6.69c-7.598-3.138-16.333-.278-24.28-2.534-15.656-4.446-25.017-19.082-16.247-24.797zM39.474 99.963c-6.167-2.378-15.16-3.171-16.858 3.153-1.205 2.84.117 8.142 2.523 10.897 4.272 4.888 12.983 6.97 19.416 7.562 1.196.11 2.367.598 3.524.939 1.479.435 1.704.657 2.45.28.216-.109.432-.317.588-.562.319.008.579-.213.695-.494l5.522-7.578c.204-.28.087-.675-.117-.91-4.875-5.603-10.737-10.586-17.743-13.287zm14.315 16.528c-.842 1.398-1.918 2.705-2.912 4.017-4.415-2.179-9.489-1.319-14.151-2.854-4.904-1.615-19.321-12.19-9.747-16.998 6.364-3.196 15.054 1.562 20.208 5.267 2.242 1.613 5.366 3.779 6.941 6.123 1.425 2.12 1.022 2.185-.34 4.445zM61.204 115.723a.731.731 0 0 0-.73.193c-1.881 2.184-5.668 6.262-6.376 7.176-.374.236-.57.748-.15 1.129 3.417 3.088 12.659 9.549 16.734 4.174 4.744-6.258-5.027-11.083-9.478-12.672zm7.269 12.666c-1.692.989-3.85.257-5.51-.345-2.742-.993-5.17-2.514-7.369-4.398.911-1.045 1.834-2.078 2.767-3.105.58-.64 1.575-2.306 2.399-2.664 2.58-1.12 7.095 2.325 8.451 4.42 1.258 1.94 1.63 4.708-.738 6.092zM76.156 152.662c.326-.392.267-.916-.345-1.19-3.797-2.023-5.63-6.076-8.643-9.008-8.329-8.103-20.487-10.15-23.797-2.631-.802 1.821-.955 3.406-.665 4.825.498 10.31 13.365 15.247 23.457 17.649 1.544.367 3.567 1.21 4.891.202.376-.286.662-.757.516-1.186.43-.116.046.426 4.586-8.661zm-21.498-15.73c3.798.957 7.41 3.03 10.354 5.589 3.547 3.083 5.505 7.586 9.572 9.992-1.186 2.683-2.505 6.825-5.354 7.018-2.52.17-6.049-1.402-8.387-2.262-5.138-1.889-16.187-7.077-16.713-13.389-.48-5.773 5.828-8.132 10.528-6.948zM79.508 153.098c-.532-.142-.879.267-.916.69-.646 1.507-2.278 6.118-3.348 8.796-.132.332.099.66.345.847 3.939 2.989 12.97 8.109 16.196 1.215 2.892-6.18-8.11-10.439-12.277-11.548zm10.218 11.926c-2.216 2.43-6.633 1.443-9.538-.2-.661-.372-2.792-1.394-3.075-2.107-.408-1.022.89-3.161 1.24-4.114.475-1.291.96-2.577 1.464-3.857 5.365 1.562 13.647 6.18 9.91 10.278zM147.328 181.426c-3.797-2.023-5.63-6.076-8.643-9.008-8.334-8.107-20.487-10.15-23.798-2.631-.831 1.888-.965 3.522-.63 4.981.848 10.057 13.688 14.861 23.429 17.18 1.04.248 2.12.651 3.197.679.996.026 2.123-.419 2.23-1.356.396-.12.016.441 4.56-8.656.326-.391.267-.914-.345-1.189zm-6.581 8.058c-2.52.17-6.049-1.401-8.388-2.26-3.682-1.355-7.592-3.474-10.916-5.615-3.09-2.214-5.555-4.876-5.796-7.776-.481-5.773 5.828-8.13 10.528-6.947 3.798.956 7.41 3.03 10.354 5.589 3.547 3.082 5.504 7.586 9.572 9.991-1.187 2.684-2.505 6.825-5.354 7.018zM147.106 193.385c3.939 2.988 12.97 8.109 16.196 1.214 2.892-6.18-8.11-10.438-12.277-11.548-.532-.141-.88.268-.916.691-.443.953-2.236 6.01-3.348 8.796-.132.332.099.66.345.847zm2.764-4.829c.475-1.29.96-2.576 1.463-3.856 5.389 1.57 13.641 6.187 9.91 10.277-2.215 2.43-6.633 1.443-9.539-.199-.66-.373-2.791-1.394-3.075-2.107-.407-1.023.89-3.162 1.24-4.115zM182.12 161.06c-4.423-1.705-13.158-3.552-16.272 1.713-.916 1.548-.977 3.24-.53 4.913 1.113 8.306 7.73 12.57 15.95 13.823 2.472.377 5.047.496 7.296 1.59 1.117.542 2.182 1.33 3.423 1.386.837.038 1.721-.507 2.058-1.212.198-.087-.357.619 5.935-8.016.203-.28.087-.675-.117-.909-4.875-5.603-10.738-10.587-17.744-13.288zm14.314 16.528c-.841 1.398-1.917 2.705-2.911 4.017-3.937-1.942-8.396-1.476-12.621-2.438-.955-.278-1.9-.594-2.83-.95-3.565-1.683-9.321-5.979-10.704-9.334-.664-1.616-.823-2.775-.851-3.745.285-1.275 1.23-2.442 3.108-3.385 6.364-3.195 15.054 1.562 20.207 5.267 2.242 1.613 5.366 3.78 6.942 6.123 1.425 2.12 1.021 2.185-.34 4.445zM203.85 176.82a.731.731 0 0 0-.73.193c-1.882 2.184-5.669 6.262-6.376 7.176-.374.236-.571.749-.15 1.129 3.417 3.088 12.658 9.55 16.733 4.174 4.745-6.257-5.027-11.082-9.477-12.672zm7.268 12.666c-1.692.989-3.85.258-5.51-.344-2.742-.993-5.17-2.515-7.368-4.398.91-1.045 1.833-2.079 2.766-3.106.58-.639 1.576-2.306 2.399-2.663 2.58-1.12 7.095 2.324 8.452 4.418 1.258 1.941 1.63 4.709-.739 6.093zM218.457 212.57c-3.797-2.024-5.63-6.076-8.644-9.008-8.808-8.571-21.999-10.517-24.352-.982-1.045 1.515 1.232 7.83 1.936 8.874 4.277 6.339 15.75 10.83 23.72 12.405.73.144 1.51.268 2.195-.02.557-.236.977-.854.915-1.422.415-.117.042.414 4.575-8.658.325-.391.267-.912-.345-1.19zm-11.432 7.113c-6.787-2.522-15.532-7.045-19.069-13.206-.209-.363-.704-1.93-1.122-3.057.674-4.626 6.22-6.461 10.47-5.39 3.798.956 7.41 3.03 10.353 5.588 3.548 3.083 5.505 7.586 9.572 9.992-2.904 6.568-3.438 8.396-10.204 6.073zM218.235 224.529c3.938 2.988 12.97 8.108 16.196 1.214 2.892-6.18-8.111-10.438-12.278-11.548-.532-.141-.878.267-.916.69-.646 1.507-2.278 6.118-3.347 8.797-.133.332.099.66.345.847zm2.764-4.829c.475-1.29.96-2.577 1.463-3.856 5.365 1.562 13.647 6.18 9.91 10.277-2.216 2.43-6.631 1.443-9.539-.199-.66-.373-2.791-1.395-3.075-2.107-.407-1.023.89-3.162 1.24-4.115zM23.158 186.64l3.15 5.5c68.898 20.33 138.942 38.222 210.024 55.029 7.742 1.83 5.199 1.376 11.315-1.26 1.106.269 2.21.545 3.315.813 1.876.456 2.676-2.436.798-2.893a6011.483 6011.483 0 0 1-227.687-60.035c-1.816-.518-2.609 2.225-.915 2.846z"/></svg>